<svg xmlns="http://www.w3.org/2000/svg" width="655.359" height="655.359" fill-rule="evenodd" clip-rule="evenodd" image-rendering="optimizeQuality" shape-rendering="geometricPrecision" text-rendering="geometricPrecision" viewBox="0 0 6.827 6.827"><polygon fill="#d68735" points="3.413 .853 3.525 1.558 3.302 1.558"/><polygon fill="#d68735" points="4.076 .941 4.002 1.65 3.786 1.592"/><polygon fill="#d68735" points="4.693 1.196 4.438 1.862 4.244 1.75"/><polygon fill="#d68735" points="5.224 1.603 4.805 2.18 4.646 2.022"/><polygon fill="#d68735" points="5.63 2.133 5.076 2.582 4.965 2.389"/><polygon fill="#d68735" points="5.886 2.751 5.235 3.041 5.177 2.825"/><polygon fill="#d68735" points="5.973 3.413 5.269 3.525 5.269 3.302"/><polygon fill="#d68735" points="5.886 4.076 5.177 4.002 5.235 3.786"/><polygon fill="#d68735" points="5.63 4.693 4.965 4.438 5.076 4.244"/><polygon fill="#d68735" points="5.224 5.224 4.646 4.805 4.805 4.646"/><polygon fill="#d68735" points="4.693 5.63 4.244 5.076 4.438 4.965"/><polygon fill="#d68735" points="4.076 5.886 3.786 5.235 4.002 5.177"/><polygon fill="#d68735" points="3.413 5.973 3.302 5.269 3.525 5.269"/><polygon fill="#d68735" points="2.751 5.886 2.825 5.177 3.041 5.235"/><polygon fill="#d68735" points="2.133 5.63 2.389 4.965 2.582 5.076"/><polygon fill="#d68735" points="1.603 5.224 2.022 4.646 2.18 4.805"/><polygon fill="#d68735" points="1.196 4.693 1.75 4.244 1.862 4.438"/><polygon fill="#d68735" points=".941 4.076 1.592 3.786 1.65 4.002"/><polygon fill="#d68735" points=".853 3.413 1.558 3.302 1.558 3.525"/><polygon fill="#d68735" points=".941 2.751 1.65 2.825 1.592 3.041"/><polygon fill="#d68735" points="1.196 2.133 1.862 2.389 1.75 2.582"/><polygon fill="#d68735" points="1.603 1.603 2.18 2.022 2.022 2.18"/><polygon fill="#d68735" points="2.133 1.196 2.582 1.75 2.389 1.862"/><polygon fill="#d68735" points="2.751 .941 3.041 1.592 2.825 1.65"/><path fill="#eb9439" d="M2.03577 2.03577c0.366453,-0.366445 0.859248,-0.570587 1.37756,-0.570587 0.518315,0 1.01111,0.204142 1.37756,0.570587 0.366445,0.366453 0.570587,0.859248 0.570587,1.37756 0,0.518315 -0.204142,1.01111 -0.570587,1.37756 -0.366453,0.366445 -0.859248,0.570587 -1.37756,0.570587 -0.518323,0 -1.01111,-0.204134 -1.37756,-0.570587 -0.366453,-0.366453 -0.570587,-0.85924 -0.570587,-1.37756 0,-0.518315 0.204142,-1.01111 0.570587,-1.37756z"/><rect width="6.827" height="6.827" fill="none"/></svg>